<svg width="32" height="29" viewBox="0 0 32 29" fill="none" xmlns="http://www.w3.org/2000/svg">
<path d="M16.3579 24.0607L16.1324 23.9466L15.9068 24.0607L9.50526 27.2968C8.38888 27.8612 7.01947 27.4408 6.44487 26.3898C6.2168 25.9727 6.1389 25.4969 6.22127 25.0351L7.44385 18.1808L7.49149 17.9137L7.29355 17.7282L2.11461 12.874C1.23055 12.0454 1.21314 10.6936 2.07396 9.84447C2.41923 9.50387 2.87448 9.27967 3.37042 9.21037L10.5275 8.21035L10.7846 8.17443L10.9032 7.94347L14.1039 1.70726C14.6499 0.643579 16.0069 0.189117 17.1386 0.72617C17.5858 0.938405 17.9438 1.28452 18.1608 1.70725L21.3615 7.94347L21.4801 8.17443L21.7372 8.21035L28.8943 9.21037C30.1441 9.38499 30.9767 10.4897 30.8019 11.6463C30.7318 12.1101 30.5043 12.542 30.1501 12.874L24.9712 17.7282L24.7732 17.9137L24.8209 18.1808L26.0435 25.0351C26.2489 26.187 25.4462 27.311 24.2022 27.5162C23.7083 27.5976 23.2009 27.52 22.7595 27.2968L16.3579 24.0607Z" fill="#F8D7A4" stroke="#F8D7A4"/>
</svg>
